# xmcd
#
# Track frame offsets:
#	150
#	12300
#	18650
#	32492
#	39820
#	53420
#	69245
#	82810
#	100632
#	110420
#	117660
#	124427
#	134702
#	145612
#	160040
#	172087
#	180865
#	212987
#	224200
#
# Disc length: 3351 seconds
#
# Revision: 5
# Processed by: cddbd v1.5.2PL0 Copyright (c) Steve Scherf et al.
# Submitted via: audiograbber 1.83.01
#
DISCID=060d1513
DTITLE=Johnny Cash (At Folsom Prison) - At Folsom Prison
DYEAR=1999
DGENRE=Country
TTITLE0=Folsom prison blues
TTITLE1=Busted
TTITLE2=Dark as the dungeon
TTITLE3=I still miss someone
TTITLE4=Cocaine blues
TTITLE5=25 Minutes to go
TTITLE6=Orange blossom special
TTITLE7=The long black veil
TTITLE8=Send a picture of mother
TTITLE9=The wall
TTITLE10=Dirty old egg-suckin' dog
TTITLE11=Flushed from the bathroom of your heart
TTITLE12=Joe Bean
TTITLE13=Jackson (with June Carter)
TTITLE14=Give my love to rose (with June Carter)
TTITLE15=I got stripes
TTITLE16=The legend of John Henry's hammer
TTITLE17=Green, green grass of home
TTITLE18=Greystone chapel
EXTD=
EXTT0=
EXTT1=
EXTT2=
EXTT3=
EXTT4=
EXTT5=
EXTT6=
EXTT7=
EXTT8=
EXTT9=
EXTT10=
EXTT11=
EXTT12=
EXTT13=
EXTT14=
EXTT15=
EXTT16=
EXTT17=
EXTT18=
PLAYORDER=
